<?xml version="1.0" standalone="no"?>
<!DOCTYPE svg PUBLIC "-//W3C//DTD SVG 20010904//EN"
 "http://www.w3.org/TR/2001/REC-SVG-20010904/DTD/svg10.dtd">
<svg version="1.0" xmlns="http://www.w3.org/2000/svg"
 width="300.000000pt" height="300.000000pt" viewBox="0 0 300.000000 300.000000"
 preserveAspectRatio="xMidYMid meet">
<metadata>
Created by potrace 1.10, written by Peter Selinger 2001-2011
</metadata>
<g transform="translate(0.000000,300.000000) scale(0.100000,-0.100000)"
fill="#000000" stroke="none">
<path d="M1647 2326 c-12 -6 -30 -28 -41 -50 -18 -38 -18 -38 3 -59 19 -19 34
-22 127 -25 59 -1 130 -9 159 -17 121 -36 224 -147 255 -276 34 -139 5 -310
-68 -401 -61 -76 -92 -102 -160 -136 l-76 -37 -199 -1 c-166 -2 -201 -4 -216
-18 -23 -21 -32 -20 -24 2 14 41 73 162 79 162 3 0 15 -12 27 -26 l20 -26 136
5 c182 6 224 20 304 100 75 75 100 136 101 241 0 91 -37 177 -101 237 -58 54
-99 69 -199 76 -81 6 -83 5 -108 -22 -30 -32 -34 -76 -10 -96 10 -8 52 -16 95
-20 64 -4 83 -10 114 -33 123 -94 69 -302 -87 -336 -27 -5 -91 -10 -141 -10
-58 0 -97 -4 -105 -12 -24 -24 -19 -1 16 85 29 70 34 93 26 114 -13 37 -53 46
-99 23 -19 -10 -35 -15 -35 -11 0 4 36 60 80 125 73 109 88 136 76 136 -3 0
-44 -57 -92 -127 -48 -71 -118 -165 -155 -210 -38 -45 -66 -84 -61 -87 4 -2
19 10 34 27 102 122 106 126 112 112 3 -8 2 -15 -3 -15 -5 0 -12 -12 -16 -27
-3 -16 -26 -68 -49 -118 -24 -49 -49 -106 -56 -125 -18 -49 -50 -100 -61 -100
-11 0 -57 95 -95 198 l-24 63 33 -6 c25 -5 39 -1 61 16 36 29 33 44 -50 246
-36 87 -81 196 -99 243 -60 155 -84 198 -117 209 -41 15 -191 14 -223 -1 -36
-16 -36 -53 -1 -133 23 -50 41 -94 91 -215 33 -81 51 -125 111 -269 27 -63 49
-120 50 -125 1 -6 23 -60 49 -121 26 -60 56 -135 67 -165 27 -73 53 -98 103
-100 111 -5 126 -2 161 36 28 29 34 32 34 16 0 -10 8 -27 19 -36 16 -14 45
-17 224 -17 179 0 215 3 275 20 154 46 291 177 348 331 123 338 -28 684 -338
774 -66 20 -250 27 -281 12z m-555 -341 c70 -170 126 -319 125 -330 -1 -14
-11 -21 -32 -23 l-31 -3 -106 253 c-59 139 -114 272 -123 296 -16 38 -20 42
-51 42 l-34 0 16 -37 c16 -39 270 -652 329 -797 31 -76 34 -79 65 -80 29 -1
35 4 48 34 18 45 122 278 156 353 26 56 28 57 67 57 22 0 39 -4 37 -8 -1 -5
-52 -124 -113 -265 l-110 -257 -85 0 -85 0 -29 73 c-16 39 -114 278 -218 531
-103 252 -188 463 -188 468 0 5 52 7 117 6 l117 -3 128 -310z m837 296 c85
-26 137 -60 204 -130 161 -168 192 -442 75 -663 -38 -72 -129 -166 -199 -205
-97 -56 -141 -63 -375 -63 l-212 0 14 38 15 37 181 -3 c160 -3 188 -1 249 18
130 39 239 148 290 289 31 86 34 257 6 337 -25 73 -95 169 -152 210 -86 60
-143 76 -282 75 -68 0 -123 3 -123 8 0 4 5 22 11 40 l11 31 113 0 c83 0 129
-5 174 -19z m-34 -261 c53 -26 109 -89 130 -150 8 -23 15 -75 15 -115 0 -60
-5 -82 -31 -133 -34 -70 -92 -123 -160 -148 -45 -17 -329 -34 -329 -20 0 4 6
22 14 40 l14 34 129 4 c114 3 133 6 173 28 147 83 156 307 15 387 -33 18 -56
23 -124 23 -72 0 -82 2 -77 16 3 9 9 27 12 41 7 25 7 26 90 20 57 -3 97 -12
129 -27z"/>
<path d="M1434 2313 c-6 -4 -22 -28 -36 -53 -68 -121 -110 -193 -123 -206 -16
-17 -79 -153 -74 -158 3 -3 33 -6 67 -7 34 -1 59 -6 56 -10 -3 -5 2 -6 10 -3
10 4 16 1 16 -7 0 -19 -61 -181 -76 -204 -8 -11 -14 -31 -13 -45 1 -21 4 -18
22 20 24 53 97 242 97 252 0 4 -38 9 -85 10 l-84 3 116 198 115 197 60 0 59 0
-25 -42 c-13 -24 -45 -81 -71 -128 -26 -47 -50 -88 -52 -92 -2 -5 40 -8 93 -8
105 0 120 10 27 17 -32 3 -62 9 -68 14 -7 7 0 28 18 62 77 140 89 169 78 180
-13 13 -112 21 -127 10z"/>
<path d="M860 1012 c-8 -2 -29 -11 -47 -19 -29 -13 -35 -13 -55 1 -35 25 -64
20 -92 -17 -15 -19 -26 -41 -26 -50 0 -33 -21 -27 -36 10 -22 53 -43 73 -74
73 -28 0 -60 -27 -60 -51 0 -8 6 -25 13 -39 8 -14 26 -59 42 -100 34 -92 58
-120 100 -120 36 0 57 19 80 73 17 42 32 47 44 15 12 -31 58 -72 98 -88 48
-18 113 -5 153 30 37 33 50 37 50 16 0 -33 43 -51 123 -50 81 1 117 18 117 54
0 26 -43 60 -77 60 -42 0 -51 15 -52 89 -1 83 -7 100 -38 107 -29 8 -51 -3
-67 -32 -6 -10 -12 -21 -13 -23 -1 -2 -20 11 -41 28 -38 30 -105 46 -142 33z
m-271 -132 l35 -103 35 104 c33 95 38 103 64 106 16 2 27 0 25 -5 -1 -5 -23
-63 -48 -130 -45 -121 -45 -122 -77 -122 -29 0 -33 4 -51 53 -11 28 -32 83
-46 121 -14 37 -26 71 -26 75 0 4 12 6 27 5 25 -1 29 -8 62 -104z m378 84 c33
-21 63 -73 63 -107 0 -38 -26 -92 -54 -110 -56 -37 -132 -29 -176 18 -18 19
-25 40 -28 83 -4 52 -1 61 23 90 43 51 117 63 172 26z m163 -81 l0 -103 65 0
c64 0 65 0 65 -27 l0 -28 -90 3 -90 3 0 127 0 127 25 0 25 0 0 -102z"/>
<path d="M863 930 c-37 -15 -54 -69 -37 -115 7 -17 54 -45 78 -45 8 0 27 10
41 23 38 32 38 92 0 124 -28 24 -46 27 -82 13z m65 -42 c19 -19 14 -56 -9 -68
-16 -9 -26 -8 -45 5 -28 18 -29 23 -8 53 17 24 43 29 62 10z"/>
<path d="M1253 994 c-13 -13 -23 -27 -23 -32 0 -16 41 -62 56 -62 16 0 17 -8
16 -95 -1 -48 3 -64 20 -82 12 -13 32 -23 44 -23 37 0 54 36 54 116 0 66 2 72
25 82 14 7 28 12 30 12 3 0 5 -38 5 -84 0 -113 14 -132 98 -130 65 2 148 33
158 58 8 22 34 20 34 -2 0 -25 31 -52 58 -52 14 0 29 11 40 28 l17 29 30 -29
c36 -33 67 -36 96 -7 l21 21 41 -23 c62 -35 125 -31 183 10 25 18 47 31 49 29
1 -2 8 -13 14 -25 24 -47 101 -33 101 19 0 11 11 23 28 29 92 36 112 58 112
124 0 24 -9 45 -28 66 -23 26 -37 32 -97 39 -76 10 -112 -3 -122 -41 -7 -24
-8 -24 -46 5 -73 54 -160 52 -224 -7 l-22 -20 -36 32 c-29 25 -45 31 -88 33
-95 2 -123 -10 -129 -59 l-3 -25 -29 27 c-17 15 -44 34 -62 41 -41 17 -150 22
-165 7 -8 -8 -19 -8 -43 2 -17 7 -67 13 -110 13 -70 0 -82 -3 -103 -24z m217
-40 c0 -21 -4 -24 -40 -24 l-40 0 0 -104 0 -103 -25 5 c-25 4 -25 6 -25 103
l0 99 -40 0 c-37 0 -40 2 -40 28 l0 27 105 -3 c104 -3 105 -4 105 -28z m501
-3 c27 -33 24 -77 -6 -107 l-26 -25 31 -39 c37 -47 38 -58 2 -52 -20 3 -36 16
-56 48 -19 30 -35 44 -49 44 -20 0 -22 -4 -19 -45 4 -43 3 -45 -22 -45 l-26 0
0 128 0 127 76 -5 c64 -4 79 -9 95 -29z m540 0 c21 -25 25 -71 9 -101 -12 -23
-73 -44 -106 -36 -23 6 -24 4 -24 -39 0 -41 -2 -45 -25 -45 l-25 0 0 128 0
127 76 -5 c64 -4 79 -9 95 -29z m-830 6 c59 -40 74 -97 42 -164 -21 -45 -63
-63 -148 -63 l-65 0 0 125 0 125 69 0 c54 0 75 -5 102 -23z m548 8 c53 -27 77
-116 47 -174 -43 -83 -171 -90 -223 -12 -39 58 -25 147 29 185 28 20 110 21
147 1z"/>
<path d="M1849 938 c0 -2 -1 -20 -2 -41 -2 -36 -1 -37 34 -37 55 0 82 47 40
70 -17 9 -70 14 -72 8z"/>
<path d="M2390 895 l0 -46 38 7 c20 3 43 13 49 22 20 25 -6 56 -51 60 l-36 3
0 -46z"/>
<path d="M1560 855 l0 -88 43 7 c56 9 91 47 83 90 -9 43 -34 64 -83 72 l-43 7
0 -88z m85 15 c9 -27 -5 -51 -28 -48 -22 3 -29 40 -14 65 10 16 35 6 42 -17z"/>
<path d="M2125 928 c-31 -18 -44 -40 -44 -73 -1 -40 27 -73 66 -81 27 -5 37
-1 64 25 26 27 30 37 25 64 -7 35 -47 77 -74 77 -9 0 -26 -6 -37 -12z m63 -40
c18 -18 14 -56 -7 -68 -25 -13 -50 -3 -61 24 -15 39 38 74 68 44z"/>
</g>
</svg>
